<svg width="23" height="20" viewBox="0 0 23 20" fill="none" xmlns="http://www.w3.org/2000/svg">
<path d="M11.7715 17.9915L19.8715 9.8915C21.8615 7.8915 22.1515 4.62151 20.2715 2.53151C19.8 2.00481 19.2261 1.57979 18.5848 1.28239C17.9435 0.984991 17.2483 0.82147 16.5417 0.801815C15.8351 0.782161 15.1319 0.906786 14.475 1.16808C13.8182 1.42937 13.2215 1.82184 12.7215 2.32151L11.2015 3.85151L9.89151 2.53151C7.89151 0.541505 4.62151 0.251505 2.53151 2.1315C2.00481 2.60299 1.57979 3.17691 1.28239 3.81821C0.984991 4.4595 0.82147 5.15469 0.801815 5.86131C0.782161 6.56794 0.906786 7.27115 1.16808 7.92798C1.42937 8.58481 1.82184 9.18147 2.32151 9.68151L10.6315 17.9915C10.7832 18.1417 10.988 18.226 11.2015 18.226C11.415 18.226 11.6198 18.1417 11.7715 17.9915V17.9915Z" stroke="#A1A1A1" stroke-width="1.6" stroke-linecap="round" stroke-linejoin="round"/>
</svg>
