<svg width="140" height="136" viewBox="0 0 140 136" fill="none" xmlns="http://www.w3.org/2000/svg">
<path d="M71.2233 59.9183C71.1716 64.8357 71.2237 69.7521 71.3785 74.6673C71.4943 74.9429 71.6486 75.1945 71.8424 75.4202C90.9386 75.5205 110.035 75.6208 129.131 75.721C137.702 77.9849 140.746 83.2526 138.266 91.5238C136.374 94.9642 133.433 97.0213 129.441 97.6947L9.28968 97.9954C3.3111 100.437 1.71096 104.501 4.48987 110.186C5.69842 111.802 7.2987 112.856 9.28968 113.347C49.6587 113.35 90.019 113.55 130.37 113.949C135.897 115.263 138.89 118.675 139.35 124.183C139.135 129.906 136.244 133.617 130.679 135.32C87.3261 135.52 43.9729 135.52 0.619754 135.32C-0.206054 134.417 0.619754 132.611 0.619754 132.611L129.441 132.31C132.075 131.705 134.037 130.25 135.325 127.946C135.779 127.691 136.036 127.289 136.098 126.742C136.35 125.481 136.299 124.276 135.944 123.129C135.032 119.484 132.658 117.327 128.822 116.658L8.98011 116.357C5.20856 115.447 2.52499 113.29 0.929325 109.885C0.115218 106.966 0.115214 104.055 0.929325 101.156C2.5966 97.4824 5.48709 95.326 9.60022 94.6849C49.5471 94.5847 89.4942 94.4834 129.441 94.3831C134.204 93.0647 136.422 90.0046 136.098 85.2025C135.218 81.9393 133.103 79.8829 129.751 79.0325C109.519 78.9323 89.2876 78.831 69.0563 78.7308C68.7984 78.4801 68.5398 78.2295 68.2819 77.9788C68.127 71.9597 68.0749 65.9393 68.1266 59.9183H71.2233ZM69.6744 45.7708C72.0582 45.7717 74.3292 45.9728 76.4869 46.3734C75.4041 49.5331 74.3718 52.744 73.3903 56.0052C73.2277 56.2134 73.0212 56.3637 72.7711 56.4564C70.6035 56.6571 68.4358 56.6571 66.2682 56.4564C66.1134 56.3059 65.9582 56.1557 65.8033 56.0052C64.6471 52.8415 63.6667 49.631 62.8619 46.3734C65.0197 45.9727 67.2907 45.7717 69.6744 45.7708ZM57.2877 28.6136C65.5456 28.2124 73.8033 28.2124 82.0612 28.6136C80.6299 32.5745 79.3914 36.5877 78.3453 40.6536C77.962 41.1695 77.7557 41.7714 77.7262 42.4593C72.2319 42.5553 66.761 42.4553 61.3141 42.1585C60.1179 37.6089 58.7754 33.094 57.2877 28.6136ZM87.6364 9.34895C87.6881 14.2664 87.6359 19.1836 87.4811 24.099C87.12 24.45 86.7592 24.8007 86.3981 25.1517C80.8241 25.202 75.2494 25.2518 69.6754 25.3021C63.8681 25.3487 58.0877 25.1985 52.3346 24.8509C52.1408 24.6252 51.9856 24.3745 51.8698 24.099C51.7149 19.1836 51.6637 14.2664 51.7155 9.34895H87.6364ZM0.619754 0.0188724C46.6569 -0.031395 92.6942 0.0187612 138.731 0.169263C138.886 0.319705 139.041 0.469993 139.196 0.620435C139.402 2.22569 139.402 3.83159 139.196 5.43684C138.938 5.68749 138.679 5.93814 138.422 6.18879C92.5909 6.38956 46.76 6.38956 0.929325 6.18879C0.671423 5.93811 0.412813 5.68753 0.154911 5.43684C-0.0516369 3.83159 -0.0516369 2.22569 0.154911 0.620435C0.376856 0.456752 0.532101 0.256245 0.619754 0.0188724Z" fill="#DDDDDD"/>
</svg>
